<svg id="Capa_1" data-name="Capa 1" xmlns="http://www.w3.org/2000/svg" viewBox="0 0 943.06 974.84"><defs><style>.cls-1{fill:#12abd4;}.cls-2{fill:#094a87;}.cls-3{fill:#77c01e;}.cls-4{fill:#add17b;}.cls-5{fill:#fff;}</style></defs><title>Giver</title><path class="cls-1" d="M996.2,1200.12a466,466,0,0,0-5.67-58.62c-4.41-28.25-9.89-56.31-16.25-84.2-9.21-40.42-20.91-80.07-37.27-118.25-14-32.72-31.39-63.51-53.19-91.73-2.5-3.24-2.51-3.24,1.23-4.63.35-.13.72-.2,1.07-.34A71.94,71.94,0,0,0,907.66,830c10.07-8.69,17.43-19.39,23.23-31.21,9.8-20,13.94-41.35,15.69-63.32a206.08,206.08,0,0,0-1.23-42.06,223.84,223.84,0,0,0-30.26-88.25c-19.57-32.67-44.77-60.53-73.7-85.08-27.09-23-57-41.6-89.07-56.84-24.84-11.82-50.65-21.25-76.51-30.5A524.09,524.09,0,0,0,575,407.76a552,552,0,0,0-56.79-5.38q-24.42-1-48.87.26a482.51,482.51,0,0,0-80.49,10.75c-67.14,15-127.78,43.56-181.07,87.31a362,362,0,0,0-58.31,60.67c-26.42,34.69-46.75,72.72-61.87,113.57a492.16,492.16,0,0,0-24.17,90.59c-2.32,14-4.16,28-5.66,42-1.06,10-1.8,20-2.56,30-1,13-1.51,26.06-1.81,39.1-.46,19.27.46,38.51,1.86,57.75q1.41,19.32,4.05,38.51,3.63,26.22,9.61,52c12.84,55.46,32.47,108.29,61.06,157.64,23.63,40.79,52.47,77.32,88.51,108A367.17,367.17,0,0,0,319.81,1352c32.41,13,66,21.11,100.92,23.24a305.41,305.41,0,0,0,73.93-4.5,364.05,364.05,0,0,0,107.08-38c29-15.58,56-34.19,82.33-53.89,17.71-13.27,35-27.09,52.43-41.54,2.1,3.12,2.51,6.5,3.38,9.68a284.08,284.08,0,0,0,16.46,45.53c11.46,24.43,27.34,45.3,49.3,61.24,29.57,21.45,62,28.45,97.49,18.65,28.57-7.89,51.34-24,67.07-49.51a152.68,152.68,0,0,0,17.51-42.22C994.58,1254.27,997,1227.37,996.2,1200.12Zm-46.69-4.4a292.32,292.32,0,0,1-3.32,34.39,206,206,0,0,1-7.79,33.24c-3.54,10.53-8.22,20.52-15.14,29.34a76.92,76.92,0,0,1-21.19,18.54,87.7,87.7,0,0,1-34.63,11.87c-30.17,3.78-57-4.57-80.63-23.51-11.38-9.13-20.21-20.5-27.69-32.93-12-19.93-20.18-41.49-26.8-63.7-2.83-9.5-5.62-19-7.63-28.74-.16-.78-.12-1.76-1.06-2.36-1.34.14-2,1.31-2.83,2.15-12.58,12.75-26.22,24.32-40,35.74a673.07,673.07,0,0,1-64.59,47.33Q596.16,1270,575,1281.15a389.88,389.88,0,0,1-65.11,27.52,255.62,255.62,0,0,1-68.3,11.78c-4.46.13-8.94.65-13.39.39-10.89-.64-21.77-1.11-32.62-2.59a315.07,315.07,0,0,1-36.1-7,293.27,293.27,0,0,1-97-44.58,321.42,321.42,0,0,1-27-21.13c-9-7.84-17.74-16-25.92-24.67a466.09,466.09,0,0,1-38.47-46.47q-14-19.35-26.24-39.84a534.59,534.59,0,0,1-35.16-70.27q-9.48-23.11-16.81-47a484.8,484.8,0,0,1-13.62-54.81c-1.84-10-3.61-20-5.08-30-1.1-7.47-1.51-15-2.48-22.53-1.07-8.25-1-16.59-2.06-24.83a26.67,26.67,0,0,1-.1-3.35c0-17.29-.3-34.59.11-51.88.22-9.14,1-18.31,1.89-27.45.78-7.76,1.54-15.54,2.49-23.28.87-7,1.88-14,3.12-21,2.46-13.78,5.27-27.5,8.8-41a476.75,476.75,0,0,1,22.33-65.87,438.38,438.38,0,0,1,29.85-57.93,412.12,412.12,0,0,1,30.31-42.89A373.63,373.63,0,0,1,203.21,513a352.69,352.69,0,0,1,40.41-32.94A378.36,378.36,0,0,1,300,447.45a405.58,405.58,0,0,1,62.09-23.13q17.2-4.86,34.71-8.41,14.94-3,30.08-5c8-1.06,16-1.65,24-2.7,4.05-.53,8.17-.44,12.26-.74a411.84,411.84,0,0,1,43.6-.75c8.93.29,17.87.75,26.76,1.53,18.15,1.59,36.24,3.76,54.18,7.1A505.84,505.84,0,0,1,647.29,430a487,487,0,0,1,55.23,21.26,420.82,420.82,0,0,1,64,35.78A344.33,344.33,0,0,1,799,512.1c7.1,6.23,14.06,12.61,20.63,19.4,23.41,24.22,43.17,51,57.22,81.76a221.54,221.54,0,0,1,15.51,48,184.14,184.14,0,0,1,3.5,48.14c-1.43,23.35-7.8,45.14-22.11,64.15-6.75,9-14.78,16.47-24.72,21.71a46.18,46.18,0,0,1-20.66,5.5c-24,.56-42.23-10.12-56.4-28.69-6.94-9.08-10.65-19.43-12-30.84a97.69,97.69,0,0,1,2.1-32.49c.55-2.49-.25-3.91-2.21-5.3-11.07-7.83-22.46-15.16-34.07-22.13-11.19-6.73-22.62-13-34.38-18.7A367,367,0,0,0,611,634.81q-15.07-3.34-30.33-5.55c-8.08-1.17-16.24-1.92-24.39-2.67a457.69,457.69,0,0,0-45.8-1.33,278.47,278.47,0,0,0-28.56,2.14,235.84,235.84,0,0,0-32.84,6.09A218.55,218.55,0,0,0,387.77,660a225.86,225.86,0,0,0-43.86,35.64,205.7,205.7,0,0,0-29,38.63,219.32,219.32,0,0,0-23.12,58.31,254.43,254.43,0,0,0-5,28.13,232.2,232.2,0,0,0-1.21,42.41,219.26,219.26,0,0,0,9,51.52c5.76,19.19,14,37.17,25.64,53.52a210.38,210.38,0,0,0,16.95,20.77,159.13,159.13,0,0,0,30.34,25.69,116.25,116.25,0,0,0,42.48,17.34c12.54,2.31,25.18,2.3,37.85,1.08a116.58,116.58,0,0,0,26.9-5.38c14.8-5.1,29.39-10.75,43.26-18.09a9.44,9.44,0,0,0,3.84-2.63,141.33,141.33,0,0,1-29.26-6.86c-17-6.2-30.24-16.8-38.92-32.89A99.73,99.73,0,0,1,442.68,933c-.61-4.45-.61-8.91-1.07-13.35-.42-4,.16-8.18.62-12.24A121,121,0,0,1,448,881.28a126,126,0,0,1,24.11-41.66c11.36-13.12,25-23.37,39.77-32.28,24-14.53,50.19-23.71,77.27-30.58q20-5.07,40.32-8.62c10.85-1.89,21.72-3.69,32.69-4.94a263.1,263.1,0,0,1,36-2,140.33,140.33,0,0,1,52.08,11.11c17.08,7.27,32.36,17.38,46.39,29.43a264.67,264.67,0,0,1,41.81,46,564.56,564.56,0,0,1,40.31,64A495.15,495.15,0,0,1,909.14,980c9.41,26.44,16.64,53.49,23.45,80.68,3.16,12.62,6.11,25.29,8.54,38.07,2,10.45,3.76,21,5,31.55q2.08,18.5,3.1,37.06C949.7,1176.86,949.89,1186.3,949.51,1195.72ZM449.19,978.56c8.59,13.78,20.5,23.52,36.15,28.44.77.24,1.75.24,2.27,1.14-.06,1.11-1,1.3-1.78,1.6-14.25,5.83-28.91,9.94-44.44,10.24-14.67.29-28.22-3.82-41-10.78-16.51-9-29.59-21.79-40.37-37-17.21-24.27-27.59-51.33-32.17-80.66A188.68,188.68,0,0,1,325.62,857C326.67,820.09,339,787.2,361,757.81c22.81-30.42,52.81-50.8,88.55-63.08a284.15,284.15,0,0,1,62.13-13.61,311.09,311.09,0,0,1,34.24-2A354.6,354.6,0,0,1,627.15,689c36.42,8.65,70.6,23,103.41,40.77,5.57,3,11,6.24,16.63,9.24,3,1.59,4.72,3.56,4.74,7.26,0,4,1.14,7.85,2.22,11.69.32,1.12,1.23,2.23.36,3.74-4.65-1.58-9.31-3.19-14.11-4.36a158.93,158.93,0,0,0-32.12-4.2A445.28,445.28,0,0,0,653.87,755a408.47,408.47,0,0,0-73.72,12.9c-27.85,7.71-54.35,18.45-78.58,34.43-23.43,15.45-42.05,35.21-54.57,60.49a132.61,132.61,0,0,0-12.67,38.83C430.14,929,434.4,954.85,449.19,978.56Z" transform="translate(-53.28 -401.93)"/><path class="cls-2" d="M946.08,1130.34c-1.19-10.6-3-21.1-5-31.55-2.43-12.78-5.38-25.45-8.54-38.07-6.81-27.19-14-54.24-23.45-80.68a495.15,495.15,0,0,0-30.37-68.38,564.56,564.56,0,0,0-40.31-64,264.67,264.67,0,0,0-41.81-46c-14-12-29.31-22.16-46.39-29.43a140.33,140.33,0,0,0-52.08-11.11,263.1,263.1,0,0,0-36,2c-11,1.25-21.84,3-32.69,4.94q-20.29,3.54-40.32,8.62c-27.08,6.87-53.25,16-77.27,30.58-14.73,8.91-28.41,19.16-39.77,32.28A126,126,0,0,0,448,881.28a121,121,0,0,0-5.77,26.09c-.46,4.06-1,8.22-.62,12.24.46,4.44.46,8.9,1.07,13.35a99.73,99.73,0,0,0,10.88,34.18c8.68,16.09,21.89,26.69,38.92,32.89a141.33,141.33,0,0,0,29.26,6.86,9.44,9.44,0,0,1-3.84,2.63c-13.87,7.34-28.46,13-43.26,18.09a116.58,116.58,0,0,1-26.9,5.38c-12.67,1.22-25.31,1.23-37.85-1.08a116.25,116.25,0,0,1-42.48-17.34,159.13,159.13,0,0,1-30.34-25.69,210.38,210.38,0,0,1-16.95-20.77c-11.65-16.35-19.88-34.33-25.64-53.52a219.26,219.26,0,0,1-9-51.52,232.2,232.2,0,0,1,1.21-42.41,254.43,254.43,0,0,1,5-28.13,219.32,219.32,0,0,1,23.12-58.31,205.7,205.7,0,0,1,29-38.63A225.86,225.86,0,0,1,387.77,660a218.55,218.55,0,0,1,61.33-26.46,235.84,235.84,0,0,1,32.84-6.09,278.47,278.47,0,0,1,28.56-2.14,457.69,457.69,0,0,1,45.8,1.33c8.15.75,16.31,1.5,24.39,2.67q15.25,2.21,30.33,5.55a367,367,0,0,1,80.37,27.85c11.76,5.68,23.19,12,34.38,18.7,11.61,7,23,14.3,34.07,22.13,2,1.39,2.76,2.81,2.21,5.3a97.69,97.69,0,0,0-2.1,32.49c1.33,11.41,5,21.76,12,30.84,14.17,18.57,32.4,29.25,56.4,28.69a46.18,46.18,0,0,0,20.66-5.5c9.94-5.24,18-12.74,24.72-21.71,14.31-19,20.68-40.8,22.11-64.15a184.14,184.14,0,0,0-3.5-48.14,221.54,221.54,0,0,0-15.51-48c-14-30.76-33.81-57.54-57.22-81.76-6.57-6.79-13.53-13.17-20.63-19.4A344.33,344.33,0,0,0,766.56,487a420.82,420.82,0,0,0-64-35.78A487,487,0,0,0,647.29,430a505.84,505.84,0,0,0-59.56-14.64c-17.94-3.34-36-5.51-54.18-7.1-8.89-.78-17.83-1.24-26.76-1.53a411.84,411.84,0,0,0-43.6.75c-4.09.3-8.21.21-12.26.74-8,1.05-16,1.64-24,2.7q-15.14,2-30.08,5-17.5,3.52-34.71,8.41A405.58,405.58,0,0,0,300,447.45a378.36,378.36,0,0,0-56.41,32.65A352.69,352.69,0,0,0,203.21,513a373.63,373.63,0,0,0-34.67,37.47,412.12,412.12,0,0,0-30.31,42.89,438.38,438.38,0,0,0-29.85,57.93A476.75,476.75,0,0,0,86.05,717.2c-3.53,13.55-6.34,27.27-8.8,41-1.24,7-2.25,13.94-3.12,21-.95,7.74-1.71,15.52-2.49,23.28-.91,9.14-1.67,18.31-1.89,27.45-.41,17.29-.12,34.59-.11,51.88a26.67,26.67,0,0,0,.1,3.35c1.11,8.24,1,16.58,2.06,24.83,1,7.49,1.38,15.06,2.48,22.53,1.47,10,3.24,20,5.08,30A484.8,484.8,0,0,0,93,1017.35q7.35,23.83,16.81,47A534.59,534.59,0,0,0,145,1134.58q12.2,20.52,26.24,39.84a466.09,466.09,0,0,0,38.47,46.47c8.18,8.69,16.91,16.83,25.92,24.67a321.42,321.42,0,0,0,27,21.13,293.27,293.27,0,0,0,97,44.58,315.07,315.07,0,0,0,36.1,7c10.85,1.48,21.73,2,32.62,2.59,4.45.26,8.93-.26,13.39-.39a255.62,255.62,0,0,0,68.3-11.78A389.88,389.88,0,0,0,575,1281.15q21.15-11.12,41.18-24.07a673.07,673.07,0,0,0,64.59-47.33c13.78-11.42,27.42-23,40-35.74.83-.84,1.49-2,2.83-2.15.94.6.9,1.58,1.06,2.36,2,9.72,4.8,19.24,7.63,28.74,6.62,22.21,14.8,43.77,26.8,63.7,7.48,12.43,16.31,23.8,27.69,32.93,23.62,18.94,50.46,27.29,80.63,23.51a87.7,87.7,0,0,0,34.63-11.87,76.92,76.92,0,0,0,21.19-18.54c6.92-8.82,11.6-18.81,15.14-29.34a206,206,0,0,0,7.79-33.24,292.32,292.32,0,0,0,3.32-34.39c.38-9.42.19-18.86-.33-28.32Q948.15,1148.82,946.08,1130.34Zm-34.68,60.42c-.77,18.61-4.23,36.81-12.94,53.56-9.8,18.82-25.28,30.55-46,34.67-20,4-37.92-.83-53.5-14.22-10.88-9.34-19.51-20.51-27.22-32.47-14.05-21.79-24-45.47-31.88-70.07-5.49-17-9.5-34.47-13.18-52-.38-1.81-.51-3.68-.78-5.52-.11-.74-.18-1.51-1-1.9-1.25.25-1.59,1.44-2.22,2.3-15.55,21-32.33,41-51.22,59.17a402.6,402.6,0,0,1-77.75,58.22,424.89,424.89,0,0,1-96.26,40.75,325.78,325.78,0,0,1-40.71,9,312.42,312.42,0,0,1-36.31,3.47q-14.78.48-29.44-.44a201.94,201.94,0,0,1-40.7-6.93c-25.66-7-49.38-18.25-71.83-32.35a374.21,374.21,0,0,1-73.56-61.1,451.38,451.38,0,0,1-63.59-86.75,487.34,487.34,0,0,1-36-79.78,520.1,520.1,0,0,1-17.57-63.14c-3-13.84-5.27-27.8-7-41.85-1.33-10.72-2.25-21.47-3-32.24-1.38-19.26-.91-38.54-.38-57.8.27-9.64,1.44-19.29,2.5-28.92a429.06,429.06,0,0,1,10.72-58.93,387.13,387.13,0,0,1,44.34-106.3A421.73,421.73,0,0,1,277.62,477.73a352.59,352.59,0,0,1,78.54-34.85c13.76-4.27,27.75-7.7,41.84-10.67,4.73-1,9.54-1.6,14.31-2.37h0l2-.26h0c1.24-.76,2.61-.58,4-.57h0a203,203,0,0,1,21-2.89,488.18,488.18,0,0,1,61.28-2.89c12.89.28,25.76,1.12,38.61,2.27a1.63,1.63,0,0,1,1.51.33h0c3.22.27,6.5-.08,9.68.79h0a164.68,164.68,0,0,1,17,2.18c8.63,1.78,17.37,3.05,26,4.64,5.61,1,11.19,2.26,16.79,3.38a318,318,0,0,1,42,11.66c32.13,11.1,62.5,25.79,89.73,46.45a297.25,297.25,0,0,1,68,71.71c17.11,25.55,29.54,53.19,36.32,83.26a187.15,187.15,0,0,1,4.59,34.66c.58,16.21-1.43,32-7,47.22a58.3,58.3,0,0,1-9.95,17.82c-5.26,6.26-11.82,10-20.21,9a28.38,28.38,0,0,1-16.18-7.86c-9-8.34-13.44-18.86-14.92-30.87-1.12-9.14,0-18.1,1.89-27a5.91,5.91,0,0,0-1.63-6c-20.9-21.33-43.49-40.54-69.48-55.45-19.61-11.24-40.45-19.64-62-26.32A454.29,454.29,0,0,0,596.1,592c-11.73-2.08-23.53-3.7-35.4-4.94a393.27,393.27,0,0,0-58.83-1.92q-11.7.54-23.38,1.86a342.69,342.69,0,0,0-49.37,9.24C398,604.48,368.76,617.11,342.48,636a235.69,235.69,0,0,0-95,147.12,253,253,0,0,0-4.17,32.85,213.4,213.4,0,0,0-.38,23.85A230.59,230.59,0,0,0,299,980.85c24,27.37,53,47.16,88.46,56.82a145.73,145.73,0,0,0,49.88,4.7c17.71-1.38,34.74-5.86,51.29-12.24,22.28-8.59,42.92-20.25,62.83-33.3a8.42,8.42,0,0,0,3-2.62,7.77,7.77,0,0,0-3.53,0c-19.79,2.28-39,.63-56.9-9-13-6.95-23.75-16.33-31.17-29.19A59.76,59.76,0,0,1,454.67,927c0-2.24,0-4.48-.05-6.72-.44-14.09,3-27.37,8.61-40.12,10.43-23.88,27.07-42.7,48-57.89,19-13.81,40.29-23,62.65-29.91a410.37,410.37,0,0,1,44.53-10.71c13.79-2.62,27.66-4.79,41.64-6.1a232.43,232.43,0,0,1,33.17-.89c30.08,1.54,57.52,10.58,81.64,29,15,11.42,27.27,25.38,38,40.75,13,18.61,23.36,38.73,32.52,59.47,12,27.2,22,55.16,31.35,83.37a775.33,775.33,0,0,1,25.6,96.86c2.65,13.78,4.64,27.66,6.42,41.58A386.29,386.29,0,0,1,911.4,1190.76Z" transform="translate(-53.28 -401.93)"/><path class="cls-3" d="M902.36,1084.07a775.33,775.33,0,0,0-25.6-96.86C867.44,959,857.43,931,845.41,903.84c-9.16-20.74-19.48-40.86-32.52-59.47-10.76-15.37-23-29.33-38-40.75-24.12-18.38-51.56-27.42-81.64-29a232.43,232.43,0,0,0-33.17.89c-14,1.31-27.85,3.48-41.64,6.1a410.37,410.37,0,0,0-44.53,10.71c-22.36,6.89-43.62,16.1-62.65,29.91-20.93,15.19-37.57,34-48,57.89-5.57,12.75-9.05,26-8.61,40.12.07,2.24,0,4.48.05,6.72a59.76,59.76,0,0,0,8.25,29.09c7.42,12.86,18.18,22.24,31.17,29.19,17.93,9.58,37.11,11.23,56.9,9a7.77,7.77,0,0,1,3.53,0,8.42,8.42,0,0,1-3,2.62c-19.91,13-40.55,24.71-62.83,33.3-16.55,6.38-33.58,10.86-51.29,12.24a145.73,145.73,0,0,1-49.88-4.7C352,1028,323.05,1008.22,299,980.85A230.59,230.59,0,0,1,242.9,839.79a213.4,213.4,0,0,1,.38-23.85,253,253,0,0,1,4.17-32.85,235.69,235.69,0,0,1,95-147.12c26.28-18.86,55.47-31.49,86.64-39.73A342.69,342.69,0,0,1,478.49,587q11.68-1.32,23.38-1.86a393.27,393.27,0,0,1,58.83,1.92c11.87,1.24,23.67,2.86,35.4,4.94a454.29,454.29,0,0,1,55.06,13.11c21.57,6.68,42.41,15.08,62,26.32,26,14.91,48.58,34.12,69.48,55.45a5.91,5.91,0,0,1,1.63,6c-1.94,8.89-3,17.85-1.89,27,1.48,12,5.91,22.53,14.92,30.87a28.38,28.38,0,0,0,16.18,7.86c8.39,1,15-2.78,20.21-9a58.3,58.3,0,0,0,9.95-17.82c5.57-15.27,7.58-31,7-47.22a187.15,187.15,0,0,0-4.59-34.66c-6.78-30.07-19.21-57.71-36.32-83.26a297.25,297.25,0,0,0-68-71.71c-27.23-20.66-57.6-35.35-89.73-46.45a318,318,0,0,0-42-11.66c-5.6-1.12-11.18-2.35-16.79-3.38-8.67-1.59-17.41-2.86-26-4.64a164.68,164.68,0,0,0-17-2.18h0c-.28.23-.54.62-.84.65a16,16,0,0,1-8.84-1.44h0a1.63,1.63,0,0,0-1.51-.33c-5.65,1.12-11.38.81-17,.21-5.31-.57-10.62-.72-15.92-1-8.17-.4-16.37-.19-24.56-.09-6.07.08-12.11.51-18.15,1.14-2.71.28-5.45.19-8.18.27-7.18.22-14.27,1.37-21.42,1.95q-6.84.57-13.6,1.61a2,2,0,0,1-2-.61h0c-1.35,0-2.72-.19-4,.57h0c.26.24.63.57,0,.74a1.77,1.77,0,0,1-2-.48c-4.77.77-9.58,1.37-14.31,2.37-14.09,3-28.08,6.4-41.84,10.67a352.59,352.59,0,0,0-78.54,34.85A421.73,421.73,0,0,0,134.85,619.24a387.13,387.13,0,0,0-44.34,106.3,429.06,429.06,0,0,0-10.72,58.93c-1.06,9.63-2.23,19.28-2.5,28.92-.53,19.26-1,38.54.38,57.8.77,10.77,1.69,21.52,3,32.24,1.75,14.05,4.06,28,7,41.85a520.1,520.1,0,0,0,17.57,63.14,487.34,487.34,0,0,0,36,79.78A451.38,451.38,0,0,0,204.85,1175a374.21,374.21,0,0,0,73.56,61.1c22.45,14.1,46.17,25.37,71.83,32.35a201.94,201.94,0,0,0,40.7,6.93q14.65.9,29.44.44a312.42,312.42,0,0,0,36.31-3.47,325.78,325.78,0,0,0,40.71-9,424.89,424.89,0,0,0,96.26-40.75,402.6,402.6,0,0,0,77.75-58.22c18.89-18.14,35.67-38.13,51.22-59.17.63-.86,1-2.05,2.22-2.3.85.39.92,1.16,1,1.9.27,1.84.4,3.71.78,5.52,3.68,17.51,7.69,34.93,13.18,52,7.92,24.6,17.83,48.28,31.88,70.07,7.71,12,16.34,23.13,27.22,32.47,15.58,13.39,33.52,18.18,53.5,14.22,20.74-4.12,36.22-15.85,46-34.67,8.71-16.75,12.17-35,12.94-53.56a386.29,386.29,0,0,0-2.62-65.11C907,1111.73,905,1097.85,902.36,1084.07ZM169.41,689.93c-2.66,9.47-6,18.68-11.3,27.07a29.4,29.4,0,0,1-14,12c-13,5.35-23.5-1.38-24.58-15-.15-2,0-4,0-6a87.73,87.73,0,0,1,3.56-25.35c3.87-12.55,12.84-19.86,25.11-22.48,11.91-2.55,20.32,3.37,22.12,16.49A32.89,32.89,0,0,1,169.41,689.93ZM212,630.46c-5.89,7-12.49,13.16-21,17a30.49,30.49,0,0,1-11.14,2.67c-6.66.37-13.87-4.14-16.25-12.29-1.9-6.49-1.43-13-.41-19.58,2.12-13.59,7.38-26.06,14.68-37.58a243.1,243.1,0,0,1,55.66-61.73,128.05,128.05,0,0,1,37.26-20,46.22,46.22,0,0,1,16.3-2.68A32.39,32.39,0,0,1,300,498.44a22,22,0,0,1,5.85,3.23c6.23,4.8,7.93,11.85,4.51,18.93A47.11,47.11,0,0,1,302.06,532c-7.53,8.11-15.7,15.58-23.92,23-12.11,10.9-24,22-34.67,34.37-6.64,7.74-12.81,15.85-18.7,24.16C220.68,619.28,216.54,625,212,630.46Z" transform="translate(-53.28 -401.93)"/><path class="cls-4" d="M420.28,429.62q6.77-1,13.6-1.61c7.15-.58,14.24-1.73,21.42-1.95,2.73-.08,5.47,0,8.18-.27,6-.63,12.08-1.06,18.15-1.14,8.19-.1,16.39-.31,24.56.09,5.3.25,10.61.4,15.92,1,5.62.6,11.35.91,17-.21-12.85-1.15-25.72-2-38.61-2.27a488.18,488.18,0,0,0-61.28,2.89,203,203,0,0,0-21,2.89h0A2,2,0,0,0,420.28,429.62Z" transform="translate(-53.28 -401.93)"/><path class="cls-4" d="M549.46,427.27c.3,0,.56-.42.84-.65h0c-3.18-.87-6.46-.52-9.68-.79h0A16,16,0,0,0,549.46,427.27Z" transform="translate(-53.28 -401.93)"/><path class="cls-4" d="M414.31,430.32c.6-.17.23-.5,0-.74h0l-2,.26h0A1.77,1.77,0,0,0,414.31,430.32Z" transform="translate(-53.28 -401.93)"/><path class="cls-5" d="M278.14,555c8.22-7.4,16.39-14.87,23.92-23a47.11,47.11,0,0,0,8.34-11.39c3.42-7.08,1.72-14.13-4.51-18.93a22,22,0,0,0-5.85-3.23,32.39,32.39,0,0,0-12.93-2.22,46.22,46.22,0,0,0-16.3,2.68,128.05,128.05,0,0,0-37.26,20,243.1,243.1,0,0,0-55.66,61.73c-7.3,11.52-12.56,24-14.68,37.58-1,6.54-1.49,13.09.41,19.58,2.38,8.15,9.59,12.66,16.25,12.29A30.49,30.49,0,0,0,191,647.45c8.47-3.83,15.07-10,21-17,4.57-5.43,8.71-11.18,12.8-17,5.89-8.31,12.06-16.42,18.7-24.16C254.1,577,266,565.87,278.14,555Z" transform="translate(-53.28 -401.93)"/><path class="cls-5" d="M148.23,660.12C136,662.74,127,670.05,123.12,682.6A87.73,87.73,0,0,0,119.56,708c0,2-.13,4,0,6,1.08,13.65,11.53,20.38,24.58,15a29.4,29.4,0,0,0,14-12c5.25-8.39,8.64-17.6,11.3-27.07a32.89,32.89,0,0,0,.94-13.32C168.55,663.49,160.14,657.57,148.23,660.12Z" transform="translate(-53.28 -401.93)"/></svg>