<svg width="1356" height="1920" xmlns="http://www.w3.org/2000/svg" xmlns:xlink="http://www.w3.org/1999/xlink" overflow="hidden"><defs><clipPath id="clip0"><rect x="2" y="-2" width="1356" height="1920"/></clipPath><clipPath id="clip1"><rect x="1002" y="1677" width="356" height="241"/></clipPath><clipPath id="clip2"><rect x="1192" y="1736" width="166" height="182"/></clipPath><clipPath id="clip3"><rect x="899" y="1506" width="459" height="412"/></clipPath><clipPath id="clip4"><rect x="427" y="1235" width="931" height="683"/></clipPath><clipPath id="clip5"><rect x="783" y="1416" width="575" height="502"/></clipPath><clipPath id="clip6"><rect x="194" y="1050" width="1164" height="868"/></clipPath><clipPath id="clip7"><rect x="2" y="714" width="1356" height="1204"/></clipPath><clipPath id="clip8"><rect x="72" y="841" width="1286" height="1077"/></clipPath></defs><g clip-path="url(#clip0)" transform="translate(-2 2)"><path d="M140.551 594.534C157.341 587.913 175.731 585.922 192.309 578.771 239.015 558.602 271.96 498.708 322.172 506.907 328.792 507.987 335.381 510.328 342.055 509.619 361.388 507.564 368.761 483.718 371.61 464.492 387.924 472.987 410.911 458.591 410.392 440.212 410.159 431.854 406.017 424.004 405.604 415.646 404.439 391.684 442.828 378.888 456.282 398.75 478.008 387.913 454.544 344.078 476.472 333.644 483.4 330.35 491.642 332.765 499.184 331.398 522.002 327.235 524.248 296.303 527.002 273.273 534.28 212.627 581.43 165.477 626.589 124.343 673.061 82.0127 720.339 40.5508 768.369-0.0105932L652.924-0.0105932C616.282 18.9725 581.388 40.8581 553.453 70.911 532.521 93.411 516.081 120.074 505.35 148.877 474.025 141.006 446.388 187.394 468.231 211.197 451.43 202.511 433.845 222.977 429.746 241.43 425.636 259.894 424.979 282.044 409.322 292.648 395.212 302.203 375.667 297.161 359.841 303.485 346.875 308.665 338.157 320.689 330.159 332.129 310.858 359.725 291.547 387.331 272.246 414.926 260.932 431.102 248.284 448.284 229.47 454.237 200.699 463.337 167.5 442.892 140.159 455.667 105.593 471.811 110.392 523.528 87.4682 554.025 67.5847 580.477 33.6547 584.28 0 576.854L0 688.061C19.2373 684.576 38.5593 674.439 53.8665 662.066 82.5106 638.909 106.282 608.051 140.551 594.534" fill="#FFFFFF" transform="matrix(1.00005 0 0 1 2 -1.45763)"/><path d="M457.956 475.604C496.176 431.61 534.714 385.985 585.477 357.362 611.239 342.828 639.756 332.934 663.369 315.127 695.042 291.261 715 255.477 738.898 223.835 762.807 192.182 795.032 162.235 834.608 159.587 865 157.542 896.716 171.939 925.169 161.049 969.523 144.078 971.79 83.8665 989.693 39.8623 995.604 25.3284 1003.72 12.161 1013.31-0.0105932L768.369-0.0105932C720.339 40.5508 673.061 82.0127 626.589 124.343 581.43 165.477 534.28 212.627 527.002 273.273 524.248 296.303 522.002 327.235 499.184 331.398 491.642 332.765 483.4 330.35 476.472 333.644 454.544 344.078 478.008 387.913 456.282 398.75 442.828 378.888 404.439 391.684 405.604 415.646 406.017 424.004 410.159 431.854 410.392 440.212 410.911 458.591 387.924 472.987 371.61 464.492 368.761 483.718 361.388 507.564 342.055 509.619 335.381 510.328 328.792 507.987 322.172 506.907 271.96 498.708 239.015 558.602 192.309 578.771 175.731 585.922 157.341 587.913 140.551 594.534 106.282 608.051 82.5106 638.909 53.8665 662.066 38.5593 674.439 19.2373 684.576 0 688.061L0 935.837C162.786 792.966 315.911 639.1 457.956 475.604" fill="#8BCFEF" transform="matrix(1.00005 0 0 1 2 -1.45763)"/><path d="M100.826 970.265C127.129 956.663 162.172 965.169 185.625 947.108 221.96 919.121 203.093 850.138 241.96 825.794 266.028 810.71 300.371 822.108 323.835 806.112 353.559 785.858 346.896 735.9 374.915 713.358 392.373 699.311 417.585 700.689 437.85 691.133 480.053 671.229 486.07 615.297 505.646 572.945 526.494 527.828 566.292 494.841 604.831 463.453 794.481 308.972 984.142 154.481 1173.79-0.0105932L1013.31-0.0105932C1003.72 12.161 995.604 25.3284 989.693 39.8623 971.79 83.8665 969.523 144.078 925.169 161.049 896.716 171.939 865 157.542 834.608 159.587 795.032 162.235 762.807 192.182 738.898 223.835 715 255.477 695.042 291.261 663.369 315.127 639.756 332.934 611.239 342.828 585.477 357.362 534.714 385.985 496.176 431.61 457.956 475.604 315.911 639.1 162.786 792.966 0 935.837L0 1136.27C3.84534 1135.16 7.62712 1133.65 11.2924 1131.68 67.3199 1101.53 44.3114 999.481 100.826 970.265" fill="#BDE1F2" transform="matrix(1.00005 0 0 1 2 -1.45763)"/><path d="M87.4682 554.025C110.392 523.528 105.593 471.811 140.159 455.667 167.5 442.892 200.699 463.337 229.47 454.237 248.284 448.284 260.932 431.102 272.246 414.926 291.547 387.331 310.858 359.725 330.159 332.129 338.157 320.689 346.875 308.665 359.841 303.485 375.667 297.161 395.212 302.203 409.322 292.648 424.979 282.044 425.636 259.894 429.746 241.43 433.845 222.977 451.43 202.511 468.231 211.197 446.388 187.394 474.025 141.006 505.35 148.877 516.081 120.074 532.521 93.411 553.453 70.911 581.388 40.8581 616.282 18.9725 652.924-0.0105932L535.583-0.0105932C498.136 34.9258 460.689 69.8517 423.242 104.778 397.034 129.216 370.837 153.655 344.64 178.093 321.494 199.682 291.801 222.945 261.536 213.676 260.498 256.801 213.496 292.394 171.706 281.727 182.913 317.797 141.801 357.987 105.996 345.964 103.506 383.22 67.1186 414.778 29.8835 411.96 24.5551 426.091 13.4216 437.161 0 443.898L0 576.854C33.6547 584.28 67.5847 580.477 87.4682 554.025" fill="#2358A5" transform="matrix(1.00005 0 0 1 2 -1.45763)"/><path d="M110.646 1353.82C124.142 1325.94 124.29 1293.6 122.013 1262.71 121.112 1250.56 119.915 1238.1 123.273 1226.4 129.619 1204.33 150.275 1190.07 168.835 1176.56 233.189 1129.72 288.337 1070.29 330.233 1002.61 335.53 994.047 340.975 985 349.629 979.831 364.216 971.133 387.15 973.464 393.835 957.85 398.57 946.769 390.985 934.608 389.216 922.669 386.197 902.383 401.186 882.903 419.576 873.814 437.966 864.703 459.121 863.591 479.587 862.256 499.269 860.975 521.843 857.659 532.278 840.922 537.076 833.242 538.358 823.983 540.021 815.085 544.153 792.871 551.239 771.208 561.038 750.837 582.309 706.589 631.833 664.873 676.367 685.53 686.102 655.975 717.659 639.65 747.627 631.239 777.595 622.839 809.894 618.75 835.265 600.71 876.229 571.578 886.684 515.943 915.222 474.555 969.735 395.53 1087.56 372.108 1127.25 284.682 1152.28 229.534 1142.81 154.873 1191.17 118.4 1199.35 112.225 1208.71 107.712 1217 101.663 1225.07 95.7733 1232.02 88.5064 1238.93 81.2712 1264.82 54.1843 1290.71 27.0869 1316.59-0.0105932L1173.79-0.0105932C984.142 154.481 794.481 308.972 604.831 463.453 566.292 494.841 526.494 527.828 505.646 572.945 486.07 615.297 480.053 671.229 437.85 691.133 417.585 700.689 392.373 699.311 374.915 713.358 346.896 735.9 353.559 785.858 323.835 806.112 300.371 822.108 266.028 810.71 241.96 825.794 203.093 850.138 221.96 919.121 185.625 947.108 162.172 965.169 127.129 956.663 100.826 970.265 44.3114 999.481 67.3199 1101.53 11.2924 1131.68 7.62712 1133.65 3.84534 1135.16 0 1136.27L0 1385.89C12.1398 1390.62 24.6504 1396.06 36.3453 1398.15 66.8432 1403.57 97.1398 1381.69 110.646 1353.82" fill="#2358A5" transform="matrix(1.00005 0 0 1 2 -1.45763)"/><path d="M91.0064 104.375C103.506 99.1631 114.354 90.7521 125.212 82.6589 166.504 51.875 210.127 24.2267 255.561-0.0105932L64.7246-0.0105932C55.5614 8.19915 46.0805 16.0487 36.2924 23.4958 24.9258 32.1398 12.9131 40.339 0 46.2818L0 137.214C6.73729 131.25 13.9725 126.017 22.161 122.203 43.7182 112.193 69.0678 113.528 91.0064 104.375" fill="#7ED957" transform="matrix(1.00005 0 0 1 2 -1.45763)"/><path d="M29.8835 411.96C67.1186 414.778 103.506 383.22 105.996 345.964 141.801 357.987 182.913 317.797 171.706 281.727 213.496 292.394 260.498 256.801 261.536 213.676 291.801 222.945 321.494 199.682 344.64 178.093 370.837 153.655 397.034 129.216 423.242 104.778 460.689 69.8517 498.136 34.9258 535.583-0.0105932L494.725-0.0105932C425.339 57.0021 328.21 85.5403 253.591 140.191 216.091 167.648 184.227 201.907 150.953 234.375 103.697 280.487 53.2097 323.263 0 362.362L0 443.898C13.4216 437.161 24.5551 426.091 29.8835 411.96" fill="#8BCFEF" transform="matrix(1.00005 0 0 1 2 -1.45763)"/><path d="M353.379-0.0105932 255.561-0.0105932C210.127 24.2267 166.504 51.875 125.212 82.6589 114.354 90.7521 103.506 99.1631 91.0064 104.375 69.0678 113.528 43.7182 112.193 22.161 122.203 13.9725 126.017 6.73729 131.25 0 137.214L0 228.559C30.8686 213.602 60.8898 196.907 89.8835 178.581 179.47 121.949 260.572 49.1208 353.379-0.0105932" fill="#2358A5" transform="matrix(1.00005 0 0 1 2 -1.45763)"/><path d="M244.078 1251.5C280.932 1246.33 270.794 1181.03 303.506 1163.29 315.371 1156.86 329.926 1158.7 342.913 1155.05 378.909 1144.96 389.831 1100.02 414.788 1072.18 432.977 1051.92 458.941 1040.85 483.305 1028.67 540.699 999.958 593.4 961.886 638.665 916.398 675.943 878.941 708.538 836.229 751.388 805.318 794.248 774.396 851.663 756.706 900.381 777.14 896.928 747.617 914.502 720.371 927.489 693.633 940.477 666.896 948.294 631.981 928.644 609.672 953.633 611.981 977.648 600.742 1000.22 589.788 1013.34 583.422 1026.45 577.055 1039.58 570.689 1047.47 566.854 1055.56 562.881 1061.5 556.419 1075.34 541.377 1073.53 518.347 1074.03 497.913 1074.51 477.479 1082 452.85 1102 448.623 1113.36 446.218 1124.74 451.547 1136.19 453.422 1147.64 455.307 1162.42 451.165 1164.27 439.714 1166.78 424.216 1143.92 415.456 1141.98 399.883 1139.86 382.956 1161.45 374.841 1174.09 363.379 1195.46 343.983 1191.81 310.403 1193.86 281.621 1195.91 252.828 1217 217.903 1244.64 226.239 1227.98 201.992 1212.81 165.127 1236.06 147.108 1243.79 141.112 1254.19 139.237 1261.59 132.839 1269 126.419 1272.27 116.462 1278.59 108.962 1292.6 92.3941 1317.16 91.5572 1338.36 86.9174 1344.24 85.625 1350.33 83.4004 1355.93 80.4131L1355.93-0.0105932 1316.59-0.0105932C1290.71 27.0869 1264.82 54.1843 1238.93 81.2712 1232.02 88.5064 1225.07 95.7733 1217 101.663 1208.71 107.712 1199.35 112.225 1191.17 118.4 1142.81 154.873 1152.28 229.534 1127.25 284.682 1087.56 372.108 969.735 395.53 915.222 474.555 886.684 515.943 876.229 571.578 835.265 600.71 809.894 618.75 777.595 622.839 747.627 631.239 717.659 639.65 686.102 655.975 676.367 685.53 631.833 664.873 582.309 706.589 561.038 750.837 551.239 771.208 544.153 792.871 540.021 815.085 538.358 823.983 537.076 833.242 532.278 840.922 521.843 857.659 499.269 860.975 479.587 862.256 459.121 863.591 437.966 864.703 419.576 873.814 401.186 882.903 386.197 902.383 389.216 922.669 390.985 934.608 398.57 946.769 393.835 957.85 387.15 973.464 364.216 971.133 349.629 979.831 340.975 985 335.53 994.047 330.233 1002.61 288.337 1070.29 233.189 1129.72 168.835 1176.56 150.275 1190.07 129.619 1204.33 123.273 1226.4 119.915 1238.1 121.112 1250.56 122.013 1262.71 124.29 1293.6 124.142 1325.94 110.646 1353.82 97.1398 1381.69 66.8432 1403.57 36.3453 1398.15 24.6504 1396.06 12.1398 1390.62 0 1385.89L0 1521.53C27.3729 1519.78 55.053 1518.31 80.9216 1511.15 186.716 1481.91 243.008 1361.27 244.078 1251.5" fill="#7ED957" transform="matrix(1.00005 0 0 1 2 -1.45763)"/><path d="M253.591 140.191C328.21 85.5403 425.339 57.0021 494.725-0.0105932L353.379-0.0105932C260.572 49.1208 179.47 121.949 89.8835 178.581 60.8898 196.907 30.8686 213.602 0 228.559L0 362.362C53.2097 323.263 103.697 280.487 150.953 234.375 184.227 201.907 216.091 167.648 253.591 140.191" fill="#7ED957" transform="matrix(1.00005 0 0 1 2 -1.45763)"/><path d="M64.7246-0.0105932 0-0.0105932 0 46.2818C12.9131 40.339 24.9258 32.1398 36.2924 23.4958 46.0805 16.0487 55.5614 8.19915 64.7246-0.0105932" fill="#FFFFFF" transform="matrix(1.00005 0 0 1 2 -1.45763)"/><g clip-path="url(#clip1)"><path d="M1135.08 1850.42C1116.35 1857.92 1096.24 1861.44 1077.21 1868.19 1048.69 1878.31 1023.19 1896.14 1003.17 1918.8L1191.15 1918.8C1194.4 1912.26 1197 1905.28 1199.31 1898.4 1202.86 1887.88 1206.22 1876.93 1213.41 1868.46 1220.6 1860 1232.85 1854.69 1243.05 1859.09 1248.7 1861.51 1253.21 1866.62 1259.28 1867.56 1276.62 1870.25 1282.07 1840.01 1299.39 1837.21 1303.51 1836.55 1307.71 1837.64 1311.89 1837.63 1329.59 1837.58 1341.49 1813.17 1330.64 1799.19 1322.62 1788.87 1305.23 1782.07 1308.33 1769.35 1309.8 1763.32 1315.73 1759.61 1321.2 1756.65 1332.57 1750.51 1344.15 1744.78 1355.93 1739.45L1355.93 1680.41C1306.13 1710.41 1262.35 1750.77 1219.24 1790.3 1193.68 1813.73 1167.29 1837.55 1135.08 1850.42" fill="#7ED957" transform="matrix(1.00005 0 0 1 2 -1.45763)"/></g><g clip-path="url(#clip2)"><path d="M1308.33 1769.35C1305.23 1782.07 1322.62 1788.87 1330.64 1799.19 1341.49 1813.17 1329.59 1837.58 1311.89 1837.63 1307.71 1837.64 1303.51 1836.55 1299.39 1837.21 1282.07 1840.01 1276.62 1870.25 1259.28 1867.56 1253.21 1866.62 1248.7 1861.51 1243.05 1859.09 1232.85 1854.69 1220.6 1860 1213.41 1868.46 1206.22 1876.93 1202.86 1887.88 1199.31 1898.4 1197 1905.28 1194.4 1912.26 1191.15 1918.8L1355.93 1918.8 1355.93 1739.45C1344.15 1744.78 1332.57 1750.51 1321.2 1756.65 1315.73 1759.61 1309.8 1763.32 1308.33 1769.35" fill="#8BCFEF" transform="matrix(1.00005 0 0 1 2 -1.45763)"/></g><g clip-path="url(#clip3)"><path d="M1298.56 1551.84C1295.52 1559.6 1297.61 1568.58 1294.92 1576.46 1284.59 1606.73 1234.12 1581.94 1207.57 1599.77 1193.8 1609.01 1190.76 1630.78 1201.47 1643.45 1206.79 1649.75 1214.48 1653.55 1220.4 1659.29 1242.13 1680.33 1225.11 1724.89 1194.88 1726.09 1163.53 1727.33 1134.4 1691.62 1105.89 1704.77 1078.72 1717.29 1081.94 1762.74 1055.14 1776.04 1037.67 1784.7 1015.13 1775.17 997.839 1784.21 974.11 1796.6 972.267 1837.38 945.996 1842.5 937.691 1844.12 928.665 1841.39 920.879 1844.69 906.568 1850.77 906.981 1870.61 906.049 1886.14 905.36 1897.43 902.521 1908.5 897.934 1918.8L1003.17 1918.8C1023.19 1896.14 1048.69 1878.31 1077.21 1868.19 1096.24 1861.44 1116.35 1857.92 1135.08 1850.42 1167.29 1837.55 1193.68 1813.73 1219.24 1790.3 1262.35 1750.77 1306.13 1710.41 1355.93 1680.41L1355.93 1508.72C1342.45 1517.48 1328.97 1526.26 1315.49 1535.02 1308.71 1539.44 1301.53 1544.32 1298.56 1551.84" fill="#BDE1F2" transform="matrix(1.00005 0 0 1 2 -1.45763)"/></g><g clip-path="url(#clip4)"><path d="M996.653 1706.2C1076.1 1641.37 1155.55 1576.53 1235 1511.68 1274.38 1479.56 1314.11 1447.2 1355.93 1418.36L1355.93 1238.18C1300.32 1269.56 1252.38 1314.51 1217.68 1368.12 1169.51 1442.56 1137.46 1541.06 1053.4 1569.28 1033.26 1576.04 1011.69 1577.87 991.706 1585.08 911.536 1614.03 882.553 1716.11 809.703 1760.35 783.994 1775.96 751.663 1785.56 737.436 1812.07 730.625 1824.78 728.771 1840.36 718.898 1850.86 702.786 1867.97 675.074 1863.11 652.066 1858.28 591.324 1845.53 528.57 1842.37 466.854 1848.97 453.633 1850.37 438.453 1853.6 432.447 1865.46 428.305 1873.63 430 1883.39 430.498 1892.55 430.985 1901.49 430 1910.32 427.765 1918.8L781.377 1918.8C838.369 1835.92 918.273 1770.17 996.653 1706.2" fill="#7ED957" transform="matrix(1.00005 0 0 1 2 -1.45763)"/></g><g clip-path="url(#clip5)"><path d="M1235 1511.68C1155.55 1576.53 1076.1 1641.37 996.653 1706.2 918.273 1770.17 838.369 1835.92 781.377 1918.8L897.934 1918.8C902.521 1908.5 905.36 1897.43 906.049 1886.14 906.981 1870.61 906.568 1850.77 920.879 1844.69 928.665 1841.39 937.691 1844.12 945.996 1842.5 972.267 1837.38 974.11 1796.6 997.839 1784.21 1015.13 1775.17 1037.67 1784.7 1055.14 1776.04 1081.94 1762.74 1078.72 1717.29 1105.89 1704.77 1134.4 1691.62 1163.53 1727.33 1194.88 1726.09 1225.11 1724.89 1242.13 1680.33 1220.4 1659.29 1214.48 1653.55 1206.79 1649.75 1201.47 1643.45 1190.76 1630.78 1193.8 1609.01 1207.57 1599.77 1234.12 1581.94 1284.59 1606.73 1294.92 1576.46 1297.61 1568.58 1295.52 1559.6 1298.56 1551.84 1301.53 1544.32 1308.71 1539.44 1315.49 1535.02 1328.97 1526.26 1342.45 1517.48 1355.93 1508.72L1355.93 1418.36C1314.11 1447.2 1274.38 1479.56 1235 1511.68" fill="#2358A5" transform="matrix(1.00005 0 0 1 2 -1.45763)"/></g><path d="M97.1081 1557.14C105.233 1568.56 124.29 1564.04 133.316 1553.31 142.331 1542.56 145.424 1528.12 152.426 1515.97 175 1476.76 228.877 1471.81 266.939 1447.34 331.811 1405.61 343.909 1311.95 404.227 1263.86 424.841 1247.4 449.958 1237.35 470.689 1221.04 526.261 1177.28 540.413 1097.81 589.396 1046.78 637.341 996.833 710.561 981.727 768.898 944.449 803.189 922.532 831.96 893.167 860.403 864.068 919.746 803.347 979.1 742.638 1038.45 681.917 1099.62 619.343 1160.88 556.653 1215.88 488.602 1255.86 439.131 1299.19 383.019 1355.93 360.773L1355.93 80.4131C1350.33 83.4004 1344.24 85.625 1338.36 86.9174 1317.16 91.5572 1292.6 92.3941 1278.59 108.962 1272.27 116.462 1269 126.419 1261.59 132.839 1254.19 139.237 1243.79 141.112 1236.06 147.108 1212.81 165.127 1227.98 201.992 1244.64 226.239 1217 217.903 1195.91 252.828 1193.86 281.621 1191.81 310.403 1195.46 343.983 1174.09 363.379 1161.45 374.841 1139.86 382.956 1141.98 399.883 1143.92 415.456 1166.78 424.216 1164.27 439.714 1162.42 451.165 1147.64 455.307 1136.19 453.422 1124.74 451.547 1113.36 446.218 1102 448.623 1082 452.85 1074.51 477.479 1074.03 497.913 1073.53 518.347 1075.34 541.377 1061.5 556.419 1055.56 562.881 1047.47 566.854 1039.58 570.689 1026.45 577.055 1013.34 583.422 1000.22 589.788 977.648 600.742 953.633 611.981 928.644 609.672 948.294 631.981 940.477 666.896 927.489 693.633 914.502 720.371 896.928 747.617 900.381 777.14 851.663 756.706 794.248 774.396 751.388 805.318 708.538 836.229 675.943 878.941 638.665 916.398 593.4 961.886 540.699 999.958 483.305 1028.67 458.941 1040.85 432.977 1051.92 414.788 1072.18 389.831 1100.02 378.909 1144.96 342.913 1155.05 329.926 1158.7 315.371 1156.86 303.506 1163.29 270.794 1181.03 280.932 1246.33 244.078 1251.5 243.008 1361.27 186.716 1481.91 80.9216 1511.15 55.053 1518.31 27.3729 1519.78 0 1521.53L0 1630.57C0.900423 1630.28 1.77966 1629.96 2.63771 1629.63 40.1059 1614.99 73.2733 1589.54 97.1081 1557.14" fill="#BDE1F2" transform="matrix(1.00005 0 0 1 2 -1.45763)"/><g clip-path="url(#clip6)"><path d="M430.498 1892.55C430 1883.39 428.305 1873.63 432.447 1865.46 438.453 1853.6 453.633 1850.37 466.854 1848.97 528.57 1842.37 591.324 1845.53 652.066 1858.28 675.074 1863.11 702.786 1867.97 718.898 1850.86 728.771 1840.36 730.625 1824.78 737.436 1812.07 751.663 1785.56 783.994 1775.96 809.703 1760.35 882.553 1716.11 911.536 1614.03 991.706 1585.08 1011.69 1577.87 1033.26 1576.04 1053.4 1569.28 1137.46 1541.06 1169.51 1442.56 1217.68 1368.12 1252.38 1314.51 1300.32 1269.56 1355.93 1238.18L1355.93 1053.94C1343.79 1068.86 1330.48 1082.83 1316.11 1095.62 1303.71 1083.18 1283.22 1070.4 1270.73 1082.75 1255.71 1097.6 1276.75 1120.18 1284.96 1139.64 1298.98 1172.87 1270.38 1208.97 1239.52 1227.66 1208.68 1246.36 1171.6 1259.18 1152.37 1289.7 1128.09 1328.26 1140.49 1383.28 1111.93 1418.78 1099.42 1434.31 1080.82 1443.55 1062.34 1451.04 1004.78 1474.38 939.343 1487.3 896.758 1532.51 858.824 1572.8 846.229 1631.93 808.464 1672.36 755.657 1728.91 670.053 1734.48 594.333 1750.39 502.638 1769.66 415.328 1809.49 340.667 1866.11 330.943 1873.49 321.081 1881.31 309.301 1884.5 283.824 1891.39 256.197 1874.94 230.9 1882.4 213.538 1887.52 202.225 1902.1 193.888 1918.8L427.765 1918.8C430 1910.32 430.985 1901.49 430.498 1892.55" fill="#8BCFEF" transform="matrix(1.00005 0 0 1 2 -1.45763)"/></g><path d="M357.553 1589.96C376.186 1583.52 395.54 1577.63 411.102 1565.51 423.485 1555.87 433.252 1542.44 447.627 1536.17 462.087 1529.84 478.612 1531.88 494.396 1531.54 556.621 1530.22 611.727 1490.79 654.862 1445.92 697.998 1401.05 733.994 1348.93 782.574 1310.02 829.629 1272.35 887.818 1247.58 926.038 1200.97 961.133 1158.17 976.547 1100.02 1018.56 1063.97 1040.4 1045.23 1067.89 1033.99 1089.69 1015.2 1136.95 974.47 1150.37 905.18 1195.29 861.875 1213.92 843.898 1237.11 831.324 1256.59 814.258 1280.97 792.913 1298.92 765.138 1322.27 742.648 1332.14 733.146 1343.6 724.534 1355.93 718.263L1355.93 478.167C1333.43 490.784 1314.09 510.318 1295.94 529.184 1283.9 541.716 1271.84 554.237 1259.8 566.769 1249.22 577.775 1238.29 589.343 1233.83 603.941 1225.4 631.525 1242.2 659.873 1258.26 683.835 1227.38 695.064 1189.08 658.581 1163.23 678.877 1155.49 684.958 1151.72 694.64 1147.53 703.559 1085.15 836.536 882.807 862.087 832.214 999.979 825.773 1017.55 821.748 1037.03 808.581 1050.34 798.496 1060.52 784.47 1065.53 771.102 1070.68 662.161 1112.63 564.894 1184.47 492.775 1276.26 441.144 1341.97 401.833 1417.93 341.123 1475.36 247.85 1563.6 113.072 1599.49 24.5763 1692.52 16.9703 1700.52 9.25847 1709.17 0 1714.8L0 1867.64C85.0212 1739.81 212.331 1640.13 357.553 1589.96" fill="#2358A5" transform="matrix(1.00005 0 0 1 2 -1.45763)"/><path d="M24.5763 1692.52C113.072 1599.49 247.85 1563.6 341.123 1475.36 401.833 1417.93 441.144 1341.97 492.775 1276.26 564.894 1184.47 662.161 1112.63 771.102 1070.68 784.47 1065.53 798.496 1060.52 808.581 1050.34 821.748 1037.03 825.773 1017.55 832.214 999.979 882.807 862.087 1085.15 836.536 1147.53 703.559 1151.72 694.64 1155.49 684.958 1163.23 678.877 1189.08 658.581 1227.38 695.064 1258.26 683.835 1242.2 659.873 1225.4 631.525 1233.83 603.941 1238.29 589.343 1249.22 577.775 1259.8 566.769 1271.84 554.237 1283.9 541.716 1295.94 529.184 1314.09 510.318 1333.43 490.784 1355.93 478.167L1355.93 360.773C1299.19 383.019 1255.86 439.131 1215.88 488.602 1160.88 556.653 1099.62 619.343 1038.45 681.917 979.1 742.638 919.746 803.347 860.403 864.068 831.96 893.167 803.189 922.532 768.898 944.449 710.561 981.727 637.341 996.833 589.396 1046.78 540.413 1097.81 526.261 1177.28 470.689 1221.04 449.958 1237.35 424.841 1247.4 404.227 1263.86 343.909 1311.95 331.811 1405.61 266.939 1447.34 228.877 1471.81 175 1476.76 152.426 1515.97 145.424 1528.12 142.331 1542.56 133.316 1553.31 124.29 1564.04 105.233 1568.56 97.1081 1557.14 73.2733 1589.54 40.1059 1614.99 2.63771 1629.63 1.77966 1629.96 0.900423 1630.28 0 1630.57L0 1714.8C9.25847 1709.17 16.9703 1700.52 24.5763 1692.52" fill="#FFFFFF" transform="matrix(1.00005 0 0 1 2 -1.45763)"/><g clip-path="url(#clip7)"><path d="M116.981 1839.31C131.112 1836.26 148.104 1840.37 158.517 1830.34 169.206 1820.06 165.413 1801.89 172.193 1788.7 176.377 1780.58 184.195 1775.07 191.716 1769.9 233.57 1741.1 275.424 1712.31 317.278 1683.53 363.686 1651.6 418.136 1618.11 472.574 1632.54 490.095 1637.19 510.636 1646.12 524.576 1634.53 535.381 1625.56 535.265 1609.25 540.699 1596.3 558.602 1553.57 620.752 1563.36 665.032 1549.72 727.426 1530.51 755.508 1460.33 798.157 1410.9 832.669 1370.9 879.29 1343 927.945 1322.39 966.25 1306.17 1008.03 1292.88 1035.78 1261.9 1050.08 1245.93 1059.57 1226.35 1069.38 1207.29 1140.32 1069.52 1238.4 945.869 1355.93 844.894L1355.93 718.263C1343.6 724.534 1332.14 733.146 1322.27 742.648 1298.92 765.138 1280.97 792.913 1256.59 814.258 1237.11 831.324 1213.92 843.898 1195.29 861.875 1150.37 905.18 1136.95 974.47 1089.69 1015.2 1067.89 1033.99 1040.4 1045.23 1018.56 1063.97 976.547 1100.02 961.133 1158.17 926.038 1200.97 887.818 1247.58 829.629 1272.35 782.574 1310.02 733.994 1348.93 697.998 1401.05 654.862 1445.92 611.727 1490.79 556.621 1530.22 494.396 1531.54 478.612 1531.88 462.087 1529.84 447.627 1536.17 433.252 1542.44 423.485 1555.87 411.102 1565.51 395.54 1577.63 376.186 1583.52 357.553 1589.96 212.331 1640.13 85.0212 1739.81 0 1867.64L0 1918.8 72.161 1918.8C78.411 1882.31 84.8305 1846.25 116.981 1839.31" fill="#7ED957" transform="matrix(1.00005 0 0 1 2 -1.45763)"/></g><g clip-path="url(#clip8)"><path d="M230.9 1882.4C256.197 1874.94 283.824 1891.39 309.301 1884.5 321.081 1881.31 330.943 1873.49 340.667 1866.11 415.328 1809.49 502.638 1769.66 594.333 1750.39 670.053 1734.48 755.657 1728.91 808.464 1672.36 846.229 1631.93 858.824 1572.8 896.758 1532.51 939.343 1487.3 1004.78 1474.38 1062.34 1451.04 1080.82 1443.55 1099.42 1434.31 1111.93 1418.78 1140.49 1383.28 1128.09 1328.26 1152.37 1289.7 1171.6 1259.18 1208.68 1246.36 1239.52 1227.66 1270.38 1208.97 1298.98 1172.87 1284.96 1139.64 1276.75 1120.18 1255.71 1097.6 1270.73 1082.75 1283.22 1070.4 1303.71 1083.18 1316.11 1095.62 1330.48 1082.83 1343.79 1068.86 1355.93 1053.94L1355.93 844.894C1238.4 945.869 1140.32 1069.52 1069.38 1207.29 1059.57 1226.35 1050.08 1245.93 1035.78 1261.9 1008.03 1292.88 966.25 1306.17 927.945 1322.39 879.29 1343 832.669 1370.9 798.157 1410.9 755.508 1460.33 727.426 1530.51 665.032 1549.72 620.752 1563.36 558.602 1553.57 540.699 1596.3 535.265 1609.25 535.381 1625.56 524.576 1634.53 510.636 1646.12 490.095 1637.19 472.574 1632.54 418.136 1618.11 363.686 1651.6 317.278 1683.53 275.424 1712.31 233.57 1741.1 191.716 1769.9 184.195 1775.07 176.377 1780.58 172.193 1788.7 165.413 1801.89 169.206 1820.06 158.517 1830.34 148.104 1840.37 131.112 1836.26 116.981 1839.31 84.8305 1846.25 78.411 1882.31 72.161 1918.8L193.888 1918.8C202.225 1902.1 213.538 1887.52 230.9 1882.4" fill="#FFFFFF" transform="matrix(1.00005 0 0 1 2 -1.45763)"/></g></g></svg>